<svg xmlns="http://www.w3.org/2000/svg" version="1.1" viewBox="-5.0 -10.0 110.0 135.0">
 <path d="m48.422 24.898c0.070313 0.23047 0.12891 0.46094 0.19922 0.66016 0.78516 2.2383 3.2109 3.4453 5.4688 2.7227 2-0.62891 2.7109-1.4219 2.9414-1.9414 0.13281-0.32031 0.13281-0.67969 0-1-0.67969-2.1211-2.5078-3.6758-4.7109-4-0.69922 0.37891-1.4219 0.78906-2.1914 1.2305-0.69141 0.67969-1.2695 1.4648-1.707 2.3281z"/>
 <path d="m46.07 38.891c2.6289 0.48828 4.7383 0.14844 6.2695-1 1.2656-1.0195 2.1172-2.4609 2.3984-4.0625-4.9102-1.4805-7.7109-3.5391-8.2812-6.1406l0.003907 0.003906c-0.28516-1.6836 0.16406-3.4102 1.2305-4.7422-0.0625-0.015625-0.12109-0.035157-0.17969-0.058594-0.85156-0.51172-1.2305-1.6719-1.1484-3.5312h-0.003906c0.054687-1.4023 0.33984-2.7812 0.85156-4.0898-4.3008-1.7617-9.5195 3.5312-9.5898 3.5781-2.9727 2.6914 3.5273 13.602 8.4492 20.043z"/>
 <path d="m63.211 14.41c-1.5195-1.8594-3.9102-4.1211-6.6797-4.3906-0.17578-0.015625-0.35547-0.023437-0.53125-0.019531-1.5938 0.046875-3.1172 0.66016-4.3008 1.7305-2.2617 1.9219-3.6055 4.7109-3.6992 7.6797 0 1.4219 0.21094 2 0.35938 2.0586s0.37891 0.050781 0.94922-0.28906c7.3984-4.3203 11.828-5.8008 14.41-6.2305-0.18359-0.16797-0.35156-0.34766-0.50781-0.53906z"/>
 <path d="m29.391 44.789c1.9727 0.082032 3.8711-0.74219 5.1602-2.2383-6.7695-5.6211-8.0898-11.852-8.3281-13.922h-0.003906c-1.9062-0.22266-3.8086 0.45312-5.1484 1.832-1 1.1211-1.7695 3.1016-1.5703 6.5703 0.71875 1.0703 5.0508 7.3789 9.8906 7.7578z"/>
 <path d="m27.781 27.922s0.35156 7.5195 8.4492 13.93c0.21875 0.21094 2.5 2.4219 4.7812 1.9102 1.4492-0.30859 2.6602-1.6719 3.6406-4-1.8008-2.3594-8.8203-12-9.3789-18.102-1.9844 0.14844-7.375 1.1016-7.4922 6.2617z"/>
 <path d="m66.461 16.719-0.26172-0.10156v0.003906c-0.054688-0.035156-0.11719-0.0625-0.17969-0.082032-0.46875-0.12891-3.3281-0.55859-11.59 3.6719 1.9609 0.82422 3.4648 2.457 4.1211 4.4805 0.31641 0.71094 0.31641 1.5273 0 2.2383-0.5 1.2617-1.8398 2.2383-3.9492 2.9102-0.59375 0.1875-1.2109 0.28516-1.832 0.28906-1.5859 0-3.1055-0.62891-4.2305-1.75 1 1.6211 3.5117 3 7.3516 4.0898 2.0703 0.21094 4.1602-0.19922 6-1.1797 1.8203-1 3.3125-2.5039 4.3008-4.3281 0.23047-0.39453 0.73047-0.53125 1.1289-0.3125 0.1875 0.10937 0.32422 0.28906 0.37891 0.5 0.054687 0.21094 0.023437 0.43359-0.089844 0.62109-1.0586 1.9375-2.6172 3.5625-4.5078 4.6992 0.26172 0.85156 1.3711 2.6602 6 2.75 0.21875 0 0.42578 0.085938 0.57813 0.24219 0.15234 0.15625 0.23047 0.37109 0.21875 0.58984 0 0.21484-0.089844 0.41797-0.24219 0.57031-0.15625 0.14844-0.36328 0.23047-0.57812 0.23047-5.2891-0.078124-7-2.25-7.4805-3.6406h0.003906c-1.5312 0.61719-3.168 0.9375-4.8203 0.9375h-0.46094c-0.38672 1.9688-1.4453 3.7383-3 5-1.4688 1.0703-3.2461 1.6172-5.0586 1.5625-0.71875-0.015626-1.4336-0.082032-2.1406-0.19922-1.1992 2.7891-2.7812 4.4414-4.7617 4.8516v-0.003906c-0.32812 0.078125-0.66406 0.12109-1 0.12109-1.6953-0.10547-3.3125-0.76562-4.5977-1.8789-1.5 1.7227-3.6484 2.7422-5.9336 2.8086h-0.58984c-3.8711-0.30859-7.2812-3.6094-9.3086-6.0586 0.5 2.4766 1.1953 4.9102 2.0703 7.2773 0.058594 0.14844 6.3398 16.441 18.199 19.738v0.003906c0.21094 0.054687 0.38672 0.19141 0.49609 0.37891 0.10547 0.1875 0.13281 0.41016 0.074219 0.62109-0.078125 0.36328-0.39844 0.625-0.76953 0.62891-0.074219 0.015625-0.15234 0.015625-0.23047 0-1.6211-0.46875-3.1758-1.1406-4.6289-2l-2.9023 23h33.91l1.4102-26.73c0.20312-2.4414 0.88281-4.8203 2-7l10.488-20.398h0.003906c0.72656-1.4219 0.60156-3.1289-0.32031-4.4297-5.9219-8.3711-10.73-13.73-13.27-14.723zm-17.062 26.703c-0.28906 0-6.9102 0.69922-10.488 11.922v-0.003906c-0.10156 0.34375-0.41406 0.57812-0.76953 0.58203-0.085937 0.007813-0.17578 0.007813-0.26172 0-0.40625-0.14844-0.63281-0.58203-0.51953-1 3.9414-12.441 11.641-13.121 11.93-13.141 0.44922-0.03125 0.83984 0.30078 0.88281 0.75 0.027344 0.45703-0.31641 0.85156-0.77344 0.89062z"/>
</svg>